0
SECTION
2
TABLES
0
TABLE
2
LAYER
0
LAYER
70
0
2
point
62
70
6
CONTINUOUS
0
LAYER
70
0
2
hull
62
10
6
CONTINUOUS
0
LAYER
70
0
2
p_name
62
50
6
CONTINUOUS
0
ENDTAB
0
ENDSEC
0
SECTION
2
ENTITIES
0
LINE
8
grid
10
3757.095
20
2845.174
11
3757.095
21
2871.174
0
LINE
8
grid
10
3758.095
20
2845.174
11
3758.095
21
2871.174
0
LINE
8
grid
10
3759.095
20
2845.174
11
3759.095
21
2871.174
0
LINE
8
grid
10
3760.095
20
2845.174
11
3760.095
21
2871.174
0
LINE
8
grid
10
3761.095
20
2845.174
11
3761.095
21
2871.174
0
LINE
8
grid
10
3762.095
20
2845.174
11
3762.095
21
2871.174
0
LINE
8
grid
10
3763.095
20
2845.174
11
3763.095
21
2871.174
0
LINE
8
grid
10
3764.095
20
2845.174
11
3764.095
21
2871.174
0
LINE
8
grid
10
3765.095
20
2845.174
11
3765.095
21
2871.174
0
LINE
8
grid
10
3766.095
20
2845.174
11
3766.095
21
2871.174
0
LINE
8
grid
10
3767.095
20
2845.174
11
3767.095
21
2871.174
0
LINE
8
grid
10
3768.095
20
2845.174
11
3768.095
21
2871.174
0
LINE
8
grid
10
3769.095
20
2845.174
11
3769.095
21
2871.174
0
LINE
8
grid
10
3770.095
20
2845.174
11
3770.095
21
2871.174
0
LINE
8
grid
10
3771.095
20
2845.174
11
3771.095
21
2871.174
0
LINE
8
grid
10
3772.095
20
2845.174
11
3772.095
21
2871.174
0
LINE
8
grid
10
3773.095
20
2845.174
11
3773.095
21
2871.174
0
LINE
8
grid
10
3774.095
20
2845.174
11
3774.095
21
2871.174
0
LINE
8
grid
10
3775.095
20
2845.174
11
3775.095
21
2871.174
0
LINE
8
grid
10
3776.095
20
2845.174
11
3776.095
21
2871.174
0
LINE
8
grid
10
3777.095
20
2845.174
11
3777.095
21
2871.174
0
LINE
8
grid
10
3778.095
20
2845.174
11
3778.095
21
2871.174
0
LINE
8
grid
10
3779.095
20
2845.174
11
3779.095
21
2871.174
0
LINE
8
grid
10
3780.095
20
2845.174
11
3780.095
21
2871.174
0
LINE
8
grid
10
3781.095
20
2845.174
11
3781.095
21
2871.174
0
LINE
8
grid
10
3782.095
20
2845.174
11
3782.095
21
2871.174
0
LINE
8
grid
10
3783.095
20
2845.174
11
3783.095
21
2871.174
0
LINE
8
grid
10
3784.095
20
2845.174
11
3784.095
21
2871.174
0
LINE
8
grid
10
3785.095
20
2845.174
11
3785.095
21
2871.174
0
LINE
8
grid
10
3786.095
20
2845.174
11
3786.095
21
2871.174
0
LINE
8
grid
10
3787.095
20
2845.174
11
3787.095
21
2871.174
0
LINE
8
grid
10
3788.095
20
2845.174
11
3788.095
21
2871.174
0
LINE
8
grid
10
3789.095
20
2845.174
11
3789.095
21
2871.174
0
LINE
8
grid
10
3790.095
20
2845.174
11
3790.095
21
2871.174
0
LINE
8
grid
10
3791.095
20
2845.174
11
3791.095
21
2871.174
0
LINE
8
grid
10
3792.095
20
2845.174
11
3792.095
21
2871.174
0
LINE
8
grid
10
3793.095
20
2845.174
11
3793.095
21
2871.174
0
LINE
8
grid
10
3794.095
20
2845.174
11
3794.095
21
2871.174
0
LINE
8
grid
10
3795.095
20
2845.174
11
3795.095
21
2871.174
0
LINE
8
grid
10
3796.095
20
2845.174
11
3796.095
21
2871.174
0
LINE
8
grid
10
3797.095
20
2845.174
11
3797.095
21
2871.174
0
LINE
8
grid
10
3798.095
20
2845.174
11
3798.095
21
2871.174
0
LINE
8
grid
10
3799.095
20
2845.174
11
3799.095
21
2871.174
0
LINE
8
grid
10
3800.095
20
2845.174
11
3800.095
21
2871.174
0
LINE
8
grid
10
3757.095
20
2845.174
11
3800.095
21
2845.174
0
LINE
8
grid
10
3757.095
20
2846.174
11
3800.095
21
2846.174
0
LINE
8
grid
10
3757.095
20
2847.174
11
3800.095
21
2847.174
0
LINE
8
grid
10
3757.095
20
2848.174
11
3800.095
21
2848.174
0
LINE
8
grid
10
3757.095
20
2849.174
11
3800.095
21
2849.174
0
LINE
8
grid
10
3757.095
20
2850.174
11
3800.095
21
2850.174
0
LINE
8
grid
10
3757.095
20
2851.174
11
3800.095
21
2851.174
0
LINE
8
grid
10
3757.095
20
2852.174
11
3800.095
21
2852.174
0
LINE
8
grid
10
3757.095
20
2853.174
11
3800.095
21
2853.174
0
LINE
8
grid
10
3757.095
20
2854.174
11
3800.095
21
2854.174
0
LINE
8
grid
10
3757.095
20
2855.174
11
3800.095
21
2855.174
0
LINE
8
grid
10
3757.095
20
2856.174
11
3800.095
21
2856.174
0
LINE
8
grid
10
3757.095
20
2857.174
11
3800.095
21
2857.174
0
LINE
8
grid
10
3757.095
20
2858.174
11
3800.095
21
2858.174
0
LINE
8
grid
10
3757.095
20
2859.174
11
3800.095
21
2859.174
0
LINE
8
grid
10
3757.095
20
2860.174
11
3800.095
21
2860.174
0
LINE
8
grid
10
3757.095
20
2861.174
11
3800.095
21
2861.174
0
LINE
8
grid
10
3757.095
20
2862.174
11
3800.095
21
2862.174
0
LINE
8
grid
10
3757.095
20
2863.174
11
3800.095
21
2863.174
0
LINE
8
grid
10
3757.095
20
2864.174
11
3800.095
21
2864.174
0
LINE
8
grid
10
3757.095
20
2865.174
11
3800.095
21
2865.174
0
LINE
8
grid
10
3757.095
20
2866.174
11
3800.095
21
2866.174
0
LINE
8
grid
10
3757.095
20
2867.174
11
3800.095
21
2867.174
0
LINE
8
grid
10
3757.095
20
2868.174
11
3800.095
21
2868.174
0
LINE
8
grid
10
3757.095
20
2869.174
11
3800.095
21
2869.174
0
LINE
8
grid
10
3757.095
20
2870.174
11
3800.095
21
2870.174
0
LINE
8
grid
10
3757.095
20
2871.174
11
3800.095
21
2871.174
0
POINT
8
point
10
3793.011
20
2869.972
0
TEXT
8
p_name
10
3793.311
20
2869.972
1
P01
40
0.5
0
POINT
8
point
10
3795.959
20
2868.952
0
TEXT
8
p_name
10
3796.259
20
2868.952
1
P02
40
0.5
0
POINT
8
point
10
3799.283
20
2864.64
0
TEXT
8
p_name
10
3799.583
20
2864.64
1
P03
40
0.5
0
POINT
8
point
10
3799.039
20
2856.23
0
TEXT
8
p_name
10
3799.339
20
2856.23
1
P04
40
0.5
0
POINT
8
point
10
3795.293
20
2853.8
0
TEXT
8
p_name
10
3795.593
20
2853.8
1
P05
40
0.5
0
POINT
8
point
10
3789.301
20
2853.684
0
TEXT
8
p_name
10
3789.601
20
2853.684
1
P06
40
0.5
0
POINT
8
point
10
3784.585
20
2857.299
0
TEXT
8
p_name
10
3784.885
20
2857.299
1
P07
40
0.5
0
POINT
8
point
10
3780.326
20
2861.322
0
TEXT
8
p_name
10
3780.626
20
2861.322
1
P08
40
0.5
0
POINT
8
point
10
3776.541
20
2864.789
0
TEXT
8
p_name
10
3776.841
20
2864.789
1
P09
40
0.5
0
POINT
8
point
10
3779.115
20
2869.933
0
TEXT
8
p_name
10
3779.415
20
2869.933
1
P10
40
0.5
0
POINT
8
point
10
3785.879
20
2870.586
0
TEXT
8
p_name
10
3786.179
20
2870.586
1
P11
40
0.5
0
POINT
8
point
10
3792.979
20
2870.191
0
TEXT
8
p_name
10
3793.279
20
2870.191
1
P12
40
0.5
0
POINT
8
point
10
3790.221
20
2869.222
0
TEXT
8
p_name
10
3790.521
20
2869.222
1
P13
40
0.5
0
POINT
8
point
10
3791.97
20
2865.383
0
TEXT
8
p_name
10
3792.27
20
2865.383
1
P14
40
0.5
0
POINT
8
point
10
3787.793
20
2865.415
0
TEXT
8
p_name
10
3788.093
20
2865.415
1
P15
40
0.5
0
POINT
8
point
10
3781.747
20
2865.363
0
TEXT
8
p_name
10
3782.047
20
2865.363
1
P16
40
0.5
0
POINT
8
point
10
3785.322
20
2861.955
0
TEXT
8
p_name
10
3785.622
20
2861.955
1
P17
40
0.5
0
POINT
8
point
10
3788.845
20
2858.02
0
TEXT
8
p_name
10
3789.145
20
2858.02
1
P18
40
0.5
0
POINT
8
point
10
3793.866
20
2858.628
0
TEXT
8
p_name
10
3794.166
20
2858.628
1
P19
40
0.5
0
POINT
8
point
10
3794.916
20
2863.177
0
TEXT
8
p_name
10
3795.216
20
2863.177
1
P20
40
0.5
0
POINT
8
point
10
3795.059
20
2862.592
0
TEXT
8
p_name
10
3795.359
20
2862.592
1
P21
40
0.5
0
POINT
8
point
10
3786.324
20
2863.73
0
TEXT
8
p_name
10
3786.624
20
2863.73
1
P22
40
0.5
0
POINT
8
point
10
3776.468
20
2858.881
0
TEXT
8
p_name
10
3776.768
20
2858.881
1
P23
40
0.5
0
POINT
8
point
10
3780.976
20
2855.736
0
TEXT
8
p_name
10
3781.276
20
2855.736
1
P24
40
0.5
0
POINT
8
point
10
3784.596
20
2852.645
0
TEXT
8
p_name
10
3784.896
20
2852.645
1
P25
40
0.5
0
POINT
8
point
10
3781.654
20
2850.453
0
TEXT
8
p_name
10
3781.954
20
2850.453
1
P26
40
0.5
0
POINT
8
point
10
3780.524
20
2847.34
0
TEXT
8
p_name
10
3780.824
20
2847.34
1
P27
40
0.5
0
POINT
8
point
10
3778.428
20
2845.174
0
TEXT
8
p_name
10
3778.728
20
2845.174
1
P28
40
0.5
0
POINT
8
point
10
3772.222
20
2845.423
0
TEXT
8
p_name
10
3772.522
20
2845.423
1
P29
40
0.5
0
POINT
8
point
10
3764.824
20
2845.985
0
TEXT
8
p_name
10
3765.124
20
2845.985
1
P30
40
0.5
0
POINT
8
point
10
3757.095
20
2846.279
0
TEXT
8
p_name
10
3757.395
20
2846.279
1
P31
40
0.5
0
LINE
8
hull
10
3757.095
20
2846.279
11
3779.115
21
2869.933
0
LINE
8
hull
10
3779.115
20
2869.933
11
3785.879
21
2870.586
0
LINE
8
hull
10
3785.879
20
2870.586
11
3792.979
21
2870.191
0
LINE
8
hull
10
3792.979
20
2870.191
11
3795.959
21
2868.952
0
LINE
8
hull
10
3795.959
20
2868.952
11
3799.283
21
2864.64
0
LINE
8
hull
10
3799.283
20
2864.64
11
3799.039
21
2856.23
0
LINE
8
hull
10
3799.039
20
2856.23
11
3795.293
21
2853.8
0
LINE
8
hull
10
3795.293
20
2853.8
11
3778.428
21
2845.174
0
LINE
8
hull
10
3778.428
20
2845.174
11
3772.222
21
2845.423
0
LINE
8
hull
10
3772.222
20
2845.423
11
3757.095
21
2846.279
0
ENDSEC
0
EOF
