 0 
SECTION
 2 
ENTITIES
 0 
LINE
 8 
LINES
 62 
 1 
 10 
 175.281894249754 
 20 
 445.18626774772 
 11 
 181.773788499508 
 21 
 452.792535495441 
 0 
POINT
 8 
POINTS
 62 
 3 
 10 
 175.281894249754 
 20 
 445.18626774772 
 0 
LINE
 8 
LINES
 62 
 1 
 10 
 181.773788499508 
 20 
 452.792535495441 
 11 
 188.265682749262 
 21 
 460.398803243161 
 0 
POINT
 8 
POINTS
 62 
 3 
 10 
 181.773788499508 
 20 
 452.792535495441 
 0 
LINE
 8 
LINES
 62 
 1 
 10 
 188.265682749262 
 20 
 460.398803243161 
 11 
 194.757576999016 
 21 
 468.005070990882 
 0 
POINT
 8 
POINTS
 62 
 3 
 10 
 188.265682749262 
 20 
 460.398803243161 
 0 
LINE
 8 
LINES
 62 
 1 
 10 
 194.757576999016 
 20 
 468.005070990882 
 11 
 201.24947124877 
 21 
 475.611338738602 
 0 
POINT
 8 
POINTS
 62 
 3 
 10 
 194.757576999016 
 20 
 468.005070990882 
 0 
LINE
 8 
LINES
 62 
 1 
 10 
 201.24947124877 
 20 
 475.611338738602 
 11 
 207.741365498523 
 21 
 483.217606486323 
 0 
POINT
 8 
POINTS
 62 
 3 
 10 
 201.24947124877 
 20 
 475.611338738602 
 0 
LINE
 8 
LINES
 62 
 1 
 10 
 207.741365498523 
 20 
 483.217606486323 
 11 
 214.233259748277 
 21 
 490.823874234043 
 0 
POINT
 8 
POINTS
 62 
 3 
 10 
 207.741365498523 
 20 
 483.217606486323 
 0 
LINE
 8 
LINES
 62 
 1 
 10 
 214.233259748277 
 20 
 490.823874234043 
 11 
 220.725153998031 
 21 
 498.430141981764 
 0 
POINT
 8 
POINTS
 62 
 3 
 10 
 214.233259748277 
 20 
 490.823874234043 
 0 
LINE
 8 
LINES
 62 
 1 
 10 
 220.725153998031 
 20 
 498.430141981764 
 11 
 227.217048247785 
 21 
 506.036409729484 
 0 
POINT
 8 
POINTS
 62 
 3 
 10 
 220.725153998031 
 20 
 498.430141981764 
 0 
LINE
 8 
LINES
 62 
 1 
 10 
 227.217048247785 
 20 
 506.036409729484 
 11 
 233.708942497539 
 21 
 513.642677477204 
 0 
POINT
 8 
POINTS
 62 
 3 
 10 
 227.217048247785 
 20 
 506.036409729484 
 0 
LINE
 8 
LINES
 62 
 1 
 10 
 233.708942497539 
 20 
 513.642677477204 
 11 
 240.185335798127 
 21 
 521.26204202968 
 0 
POINT
 8 
POINTS
 62 
 3 
 10 
 233.708942497539 
 20 
 513.642677477204 
 0 
LINE
 8 
LINES
 62 
 1 
 10 
 240.185335798127 
 20 
 521.26204202968 
 11 
 246.474336477305 
 21 
 529.034689134765 
 0 
POINT
 8 
POINTS
 62 
 3 
 10 
 240.185335798127 
 20 
 521.26204202968 
 0 
LINE
 8 
LINES
 62 
 1 
 10 
 246.474336477305 
 20 
 529.034689134765 
 11 
 252.52227425692 
 21 
 536.99083587331 
 0 
POINT
 8 
POINTS
 62 
 3 
 10 
 246.474336477305 
 20 
 529.034689134765 
 0 
LINE
 8 
LINES
 62 
 1 
 10 
 252.52227425692 
 20 
 536.99083587331 
 11 
 258.321891738197 
 21 
 545.120436561731 
 0 
POINT
 8 
POINTS
 62 
 3 
 10 
 252.52227425692 
 20 
 536.99083587331 
 0 
LINE
 8 
LINES
 62 
 1 
 10 
 258.321891738197 
 20 
 545.120436561731 
 11 
 263.866376141843 
 21 
 553.413139806065 
 0 
POINT
 8 
POINTS
 62 
 3 
 10 
 258.321891738197 
 20 
 545.120436561731 
 0 
LINE
 8 
LINES
 62 
 1 
 10 
 263.866376141843 
 20 
 553.413139806065 
 11 
 269.149374704059 
 21 
 561.858306540799 
 0 
POINT
 8 
POINTS
 62 
 3 
 10 
 263.866376141843 
 20 
 553.413139806065 
 0 
LINE
 8 
LINES
 62 
 1 
 10 
 269.149374704059 
 20 
 561.858306540799 
 11 
 273.34490420469 
 21 
 570.916278610386 
 0 
POINT
 8 
POINTS
 62 
 3 
 10 
 269.149374704059 
 20 
 561.858306540799 
 0 
LINE
 8 
LINES
 62 
 1 
 10 
 273.34490420469 
 20 
 570.916278610386 
 11 
 276.606331167935 
 21 
 580.365841701334 
 0 
POINT
 8 
POINTS
 62 
 3 
 10 
 273.34490420469 
 20 
 570.916278610386 
 0 
LINE
 8 
LINES
 62 
 1 
 10 
 276.606331167935 
 20 
 580.365841701334 
 11 
 278.996422026519 
 21 
 590.072469031879 
 0 
POINT
 8 
POINTS
 62 
 3 
 10 
 276.606331167935 
 20 
 580.365841701334 
 0 
LINE
 8 
LINES
 62 
 1 
 10 
 278.996422026519 
 20 
 590.072469031879 
 11 
 280.495437563553 
 21 
 599.955995774197 
 0 
POINT
 8 
POINTS
 62 
 3 
 10 
 278.996422026519 
 20 
 590.072469031879 
 0 
LINE
 8 
LINES
 62 
 1 
 10 
 280.495437563553 
 20 
 599.955995774197 
 11 
 281.090997750593 
 21 
 609.934796128448 
 0 
POINT
 8 
POINTS
 62 
 3 
 10 
 280.495437563553 
 20 
 599.955995774197 
 0 
LINE
 8 
LINES
 62 
 1 
 10 
 281.090997750593 
 20 
 609.934796128448 
 11 
 280.778183991486 
 21 
 619.926457451696 
 0 
POINT
 8 
POINTS
 62 
 3 
 10 
 281.090997750593 
 20 
 609.934796128448 
 0 
LINE
 8 
LINES
 62 
 1 
 10 
 280.778183991486 
 20 
 619.926457451696 
 11 
 279.559579743933 
 21 
 629.848460885188 
 0 
POINT
 8 
POINTS
 62 
 3 
 10 
 280.778183991486 
 20 
 619.926457451696 
 0 
LINE
 8 
LINES
 62 
 1 
 10 
 279.559579743933 
 20 
 629.848460885188 
 11 
 277.445249183304 
 21 
 639.618862858841 
 0 
POINT
 8 
POINTS
 62 
 3 
 10 
 279.559579743933 
 20 
 629.848460885188 
 0 
LINE
 8 
LINES
 62 
 1 
 10 
 277.445249183304 
 20 
 639.618862858841 
 11 
 274.452654084897 
 21 
 649.156971844556 
 0 
POINT
 8 
POINTS
 62 
 3 
 10 
 277.445249183304 
 20 
 639.618862858841 
 0 
LINE
 8 
LINES
 62 
 1 
 10 
 274.452654084897 
 20 
 649.156971844556 
 11 
 270.400298364622 
 21 
 658.264785494819 
 0 
POINT
 8 
POINTS
 62 
 3 
 10 
 274.452654084897 
 20 
 649.156971844556 
 0 
LINE
 8 
LINES
 62 
 1 
 10 
 270.400298364622 
 20 
 658.264785494819 
 11 
 265.45662558685 
 21 
 666.916326885361 
 0 
POINT
 8 
POINTS
 62 
 3 
 10 
 270.400298364622 
 20 
 658.264785494819 
 0 
LINE
 8 
LINES
 62 
 1 
 10 
 265.45662558685 
 20 
 666.916326885361 
 11 
 260.245862233231 
 21 
 675.425394723422 
 0 
POINT
 8 
POINTS
 62 
 3 
 10 
 265.45662558685 
 20 
 666.916326885361 
 0 
LINE
 8 
LINES
 62 
 1 
 10 
 260.245862233231 
 20 
 675.425394723422 
 11 
 254.773960198829 
 21 
 683.781120474521 
 0 
POINT
 8 
POINTS
 62 
 3 
 10 
 260.245862233231 
 20 
 675.425394723422 
 0 
LINE
 8 
LINES
 62 
 1 
 10 
 254.773960198829 
 20 
 683.781120474521 
 11 
 249.047341266812 
 21 
 691.972905553771 
 0 
POINT
 8 
POINTS
 62 
 3 
 10 
 254.773960198829 
 20 
 683.781120474521 
 0 
LINE
 8 
LINES
 62 
 1 
 10 
 249.047341266812 
 20 
 691.972905553771 
 11 
 243.072882551661 
 21 
 699.990440048512 
 0 
POINT
 8 
POINTS
 62 
 3 
 10 
 249.047341266812 
 20 
 691.972905553771 
 0 
LINE
 8 
LINES
 62 
 1 
 10 
 243.072882551661 
 20 
 699.990440048512 
 11 
 236.938540456737 
 21 
 707.887885598162 
 0 
POINT
 8 
POINTS
 62 
 3 
 10 
 243.072882551661 
 20 
 699.990440048512 
 0 
LINE
 8 
LINES
 62 
 1 
 10 
 236.938540456737 
 20 
 707.887885598162 
 11 
 230.800516655849 
 21 
 715.782482726562 
 0 
POINT
 8 
POINTS
 62 
 3 
 10 
 236.938540456737 
 20 
 707.887885598162 
 0 
LINE
 8 
LINES
 62 
 1 
 10 
 230.800516655849 
 20 
 715.782482726562 
 11 
 224.662492854961 
 21 
 723.677079854961 
 0 
POINT
 8 
POINTS
 62 
 3 
 10 
 230.800516655849 
 20 
 715.782482726562 
 0 
LINE
 8 
LINES
 62 
 1 
 10 
 224.662492854961 
 20 
 723.677079854961 
 11 
 218.642407158348 
 21 
 731.660603915235 
 0 
POINT
 8 
POINTS
 62 
 3 
 10 
 224.662492854961 
 20 
 723.677079854961 
 0 
LINE
 8 
LINES
 62 
 1 
 10 
 218.642407158348 
 20 
 731.660603915235 
 11 
 212.919615411055 
 21 
 739.854675753023 
 0 
POINT
 8 
POINTS
 62 
 3 
 10 
 218.642407158348 
 20 
 731.660603915235 
 0 
LINE
 8 
LINES
 62 
 1 
 10 
 212.919615411055 
 20 
 739.854675753023 
 11 
 207.505655668468 
 21 
 748.245396422729 
 0 
POINT
 8 
POINTS
 62 
 3 
 10 
 212.919615411055 
 20 
 739.854675753023 
 0 
LINE
 8 
LINES
 62 
 1 
 10 
 207.505655668468 
 20 
 748.245396422729 
 11 
 202.409758461369 
 21 
 756.817190573793 
 0 
POINT
 8 
POINTS
 62 
 3 
 10 
 207.505655668468 
 20 
 748.245396422729 
 0 
LINE
 8 
LINES
 62 
 1 
 10 
 202.409758461369 
 20 
 756.817190573793 
 11 
 198.170095239179 
 21 
 765.836514014209 
 0 
POINT
 8 
POINTS
 62 
 3 
 10 
 202.409758461369 
 20 
 756.817190573793 
 0 
LINE
 8 
LINES
 62 
 1 
 10 
 198.170095239179 
 20 
 765.836514014209 
 11 
 195.178809255412 
 21 
 775.37336971685 
 0 
POINT
 8 
POINTS
 62 
 3 
 10 
 198.170095239179 
 20 
 765.836514014209 
 0 
LINE
 8 
LINES
 62 
 1 
 10 
 195.178809255412 
 20 
 775.37336971685 
 11 
 193.251464379512 
 21 
 785.180752153515 
 0 
POINT
 8 
POINTS
 62 
 3 
 10 
 195.178809255412 
 20 
 775.37336971685 
 0 
LINE
 8 
LINES
 62 
 1 
 10 
 193.251464379512 
 20 
 785.180752153515 
 11 
 192.411311500638 
 21 
 795.140348112679 
 0 
POINT
 8 
POINTS
 62 
 3 
 10 
 193.251464379512 
 20 
 785.180752153515 
 0 
LINE
 8 
LINES
 62 
 1 
 10 
 192.411311500638 
 20 
 795.140348112679 
 11 
 192.668485961825 
 21 
 805.13200812622 
 0 
POINT
 8 
POINTS
 62 
 3 
 10 
 192.411311500638 
 20 
 795.140348112679 
 0 
LINE
 8 
LINES
 62 
 1 
 10 
 192.668485961825 
 20 
 805.13200812622 
 11 
 194.019885290357 
 21 
 815.035195915236 
 0 
POINT
 8 
POINTS
 62 
 3 
 10 
 192.668485961825 
 20 
 805.13200812622 
 0 
LINE
 8 
LINES
 62 
 1 
 10 
 194.019885290357 
 20 
 815.035195915236 
 11 
 196.449206625033 
 21 
 824.730442502227 
 0 
POINT
 8 
POINTS
 62 
 3 
 10 
 194.019885290357 
 20 
 815.035195915236 
 0 
LINE
 8 
LINES
 62 
 1 
 10 
 196.449206625033 
 20 
 824.730442502227 
 11 
 199.927143388814 
 21 
 834.100787447682 
 0 
POINT
 8 
POINTS
 62 
 3 
 10 
 196.449206625033 
 20 
 824.730442502227 
 0 
LINE
 8 
LINES
 62 
 1 
 10 
 199.927143388814 
 20 
 834.100787447682 
 11 
 204.547813257152 
 21 
 842.93998343811 
 0 
POINT
 8 
POINTS
 62 
 3 
 10 
 199.927143388814 
 20 
 834.100787447682 
 0 
LINE
 8 
LINES
 62 
 1 
 10 
 204.547813257152 
 20 
 842.93998343811 
 11 
 210.177049604779 
 21 
 851.168068100433 
 0 
POINT
 8 
POINTS
 62 
 3 
 10 
 204.547813257152 
 20 
 842.93998343811 
 0 
LINE
 8 
LINES
 62 
 1 
 10 
 210.177049604779 
 20 
 851.168068100433 
 11 
 216.112591729506 
 21 
 859.195883630826 
 0 
POINT
 8 
POINTS
 62 
 3 
 10 
 210.177049604779 
 20 
 851.168068100433 
 0 
LINE
 8 
LINES
 62 
 1 
 10 
 216.112591729506 
 20 
 859.195883630826 
 11 
 222.34427749713 
 21 
 867.008446151001 
 0 
POINT
 8 
POINTS
 62 
 3 
 10 
 216.112591729506 
 20 
 859.195883630826 
 0 
LINE
 8 
LINES
 62 
 1 
 10 
 222.34427749713 
 20 
 867.008446151001 
 11 
 228.861169078917 
 21 
 874.59132646964 
 0 
POINT
 8 
POINTS
 62 
 3 
 10 
 222.34427749713 
 20 
 867.008446151001 
 0 
LINE
 8 
LINES
 62 
 1 
 10 
 228.861169078917 
 20 
 874.59132646964 
 11 
 235.533856710875 
 21 
 882.039495655451 
 0 
POINT
 8 
POINTS
 62 
 3 
 10 
 228.861169078917 
 20 
 874.59132646964 
 0 
LINE
 8 
LINES
 62 
 1 
 10 
 235.533856710875 
 20 
 882.039495655451 
 11 
 242.207110502791 
 21 
 889.487158633102 
 0 
POINT
 8 
POINTS
 62 
 3 
 10 
 235.533856710875 
 20 
 882.039495655451 
 0 
LINE
 8 
LINES
 62 
 1 
 10 
 242.207110502791 
 20 
 889.487158633102 
 11 
 248.880364294707 
 21 
 896.934821610754 
 0 
POINT
 8 
POINTS
 62 
 3 
 10 
 242.207110502791 
 20 
 889.487158633102 
 0 
LINE
 8 
LINES
 62 
 1 
 10 
 248.880364294707 
 20 
 896.934821610754 
 11 
 255.555361577491 
 21 
 904.380916309329 
 0 
POINT
 8 
POINTS
 62 
 3 
 10 
 248.880364294707 
 20 
 896.934821610754 
 0 
LINE
 8 
LINES
 62 
 1 
 10 
 255.555361577491 
 20 
 904.380916309329 
 11 
 262.403384899396 
 21 
 911.665646563265 
 0 
POINT
 8 
POINTS
 62 
 3 
 10 
 255.555361577491 
 20 
 904.380916309329 
 0 
LINE
 8 
LINES
 62 
 1 
 10 
 262.403384899396 
 20 
 911.665646563265 
 11 
 269.527512779951 
 21 
 918.672085485223 
 0 
POINT
 8 
POINTS
 62 
 3 
 10 
 262.403384899396 
 20 
 911.665646563265 
 0 
LINE
 8 
LINES
 62 
 1 
 10 
 269.527512779951 
 20 
 918.672085485223 
 11 
 276.91255966256 
 21 
 925.38609027223 
 0 
POINT
 8 
POINTS
 62 
 3 
 10 
 269.527512779951 
 20 
 918.672085485223 
 0 
LINE
 8 
LINES
 62 
 1 
 10 
 276.91255966256 
 20 
 925.38609027223 
 11 
 284.898390992826 
 21 
 931.358719078986 
 0 
POINT
 8 
POINTS
 62 
 3 
 10 
 276.91255966256 
 20 
 925.38609027223 
 0 
LINE
 8 
LINES
 62 
 1 
 10 
 284.898390992826 
 20 
 931.358719078986 
 11 
 293.650937686101 
 21 
 936.183409673071 
 0 
POINT
 8 
POINTS
 62 
 3 
 10 
 284.898390992826 
 20 
 931.358719078986 
 0 
LINE
 8 
LINES
 62 
 1 
 10 
 293.650937686101 
 20 
 936.183409673071 
 11 
 302.909285149619 
 21 
 939.947412222401 
 0 
POINT
 8 
POINTS
 62 
 3 
 10 
 293.650937686101 
 20 
 936.183409673071 
 0 
LINE
 8 
LINES
 62 
 1 
 10 
 302.909285149619 
 20 
 939.947412222401 
 11 
 312.545437898432 
 21 
 942.598689866884 
 0 
POINT
 8 
POINTS
 62 
 3 
 10 
 302.909285149619 
 20 
 939.947412222401 
 0 
LINE
 8 
LINES
 62 
 1 
 10 
 312.545437898432 
 20 
 942.598689866884 
 11 
 322.426177337215 
 21 
 944.100589027772 
 0 
POINT
 8 
POINTS
 62 
 3 
 10 
 312.545437898432 
 20 
 942.598689866884 
 0 
LINE
 8 
LINES
 62 
 1 
 10 
 322.426177337215 
 20 
 944.100589027772 
 11 
 332.41490349053 
 21 
 944.432346138757 
 0 
POINT
 8 
POINTS
 62 
 3 
 10 
 322.426177337215 
 20 
 944.100589027772 
 0 
LINE
 8 
LINES
 62 
 1 
 10 
 332.41490349053 
 20 
 944.432346138757 
 11 
 342.373523480241 
 21 
 943.589374699661 
 0 
POINT
 8 
POINTS
 62 
 3 
 10 
 332.41490349053 
 20 
 944.432346138757 
 0 
LINE
 8 
LINES
 62 
 1 
 10 
 342.373523480241 
 20 
 943.589374699661 
 11 
 352.164360642124 
 21 
 941.583328684216 
 0 
POINT
 8 
POINTS
 62 
 3 
 10 
 342.373523480241 
 20 
 943.589374699661 
 0 
LINE
 8 
LINES
 62 
 1 
 10 
 352.164360642124 
 20 
 941.583328684216 
 11 
 361.535961002514 
 21 
 938.180411838004 
 0 
POINT
 8 
POINTS
 62 
 3 
 10 
 352.164360642124 
 20 
 941.583328684216 
 0 
LINE
 8 
LINES
 62 
 1 
 10 
 361.535961002514 
 20 
 938.180411838004 
 11 
 370.681489365955 
 21 
 934.173625361515 
 0 
POINT
 8 
POINTS
 62 
 3 
 10 
 361.535961002514 
 20 
 938.180411838004 
 0 
LINE
 8 
LINES
 62 
 1 
 10 
 370.681489365955 
 20 
 934.173625361515 
 11 
 379.671625459653 
 21 
 929.807005513962 
 0 
POINT
 8 
POINTS
 62 
 3 
 10 
 370.681489365955 
 20 
 934.173625361515 
 0 
LINE
 8 
LINES
 62 
 1 
 10 
 379.671625459653 
 20 
 929.807005513962 
 11 
 388.49082597558 
 21 
 925.095180148031 
 0 
POINT
 8 
POINTS
 62 
 3 
 10 
 379.671625459653 
 20 
 929.807005513962 
 0 
LINE
 8 
LINES
 62 
 1 
 10 
 388.49082597558 
 20 
 925.095180148031 
 11 
 397.249076451122 
 21 
 920.268892899259 
 0 
POINT
 8 
POINTS
 62 
 3 
 10 
 388.49082597558 
 20 
 925.095180148031 
 0 
LINE
 8 
LINES
 62 
 1 
 10 
 397.249076451122 
 20 
 920.268892899259 
 11 
 406.007326926664 
 21 
 915.442605650486 
 0 
POINT
 8 
POINTS
 62 
 3 
 10 
 397.249076451122 
 20 
 920.268892899259 
 0 
LINE
 8 
LINES
 62 
 1 
 10 
 406.007326926664 
 20 
 915.442605650486 
 11 
 414.765577402207 
 21 
 910.616318401714 
 0 
POINT
 8 
POINTS
 62 
 3 
 10 
 406.007326926664 
 20 
 915.442605650486 
 0 
LINE
 8 
LINES
 62 
 1 
 10 
 414.765577402207 
 20 
 910.616318401714 
 11 
 423.523827877749 
 21 
 905.790031152941 
 0 
POINT
 8 
POINTS
 62 
 3 
 10 
 414.765577402207 
 20 
 910.616318401714 
 0 
LINE
 8 
LINES
 62 
 1 
 10 
 423.523827877749 
 20 
 905.790031152941 
 11 
 432.282078353291 
 21 
 900.963743904169 
 0 
POINT
 8 
POINTS
 62 
 3 
 10 
 423.523827877749 
 20 
 905.790031152941 
 0 
LINE
 8 
LINES
 62 
 1 
 10 
 432.282078353291 
 20 
 900.963743904169 
 11 
 441.040328828833 
 21 
 896.137456655396 
 0 
POINT
 8 
POINTS
 62 
 3 
 10 
 432.282078353291 
 20 
 900.963743904169 
 0 
LINE
 8 
LINES
 62 
 1 
 10 
 441.040328828833 
 20 
 896.137456655396 
 11 
 449.833756347651 
 21 
 891.37605191443 
 0 
POINT
 8 
POINTS
 62 
 3 
 10 
 441.040328828833 
 20 
 896.137456655396 
 0 
LINE
 8 
LINES
 62 
 1 
 10 
 449.833756347651 
 20 
 891.37605191443 
 11 
 458.754421843116 
 21 
 886.857764121246 
 0 
POINT
 8 
POINTS
 62 
 3 
 10 
 449.833756347651 
 20 
 891.37605191443 
 0 
LINE
 8 
LINES
 62 
 1 
 10 
 458.754421843116 
 20 
 886.857764121246 
 11 
 467.800522872174 
 21 
 882.59616188311 
 0 
POINT
 8 
POINTS
 62 
 3 
 10 
 458.754421843116 
 20 
 886.857764121246 
 0 
LINE
 8 
LINES
 62 
 1 
 10 
 467.800522872174 
 20 
 882.59616188311 
 11 
 476.964675364895 
 21 
 878.59472382234 
 0 
POINT
 8 
POINTS
 62 
 3 
 10 
 467.800522872174 
 20 
 882.59616188311 
 0 
LINE
 8 
LINES
 62 
 1 
 10 
 476.964675364895 
 20 
 878.59472382234 
 11 
 486.239398889362 
 21 
 874.856716196783 
 0 
POINT
 8 
POINTS
 62 
 3 
 10 
 476.964675364895 
 20 
 878.59472382234 
 0 
LINE
 8 
LINES
 62 
 1 
 10 
 486.239398889362 
 20 
 874.856716196783 
 11 
 495.617122757731 
 21 
 871.38519023366 
 0 
POINT
 8 
POINTS
 62 
 3 
 10 
 486.239398889362 
 20 
 874.856716196783 
 0 
LINE
 8 
LINES
 62 
 1 
 10 
 495.617122757731 
 20 
 871.38519023366 
 11 
 505.090192205966 
 21 
 868.18297963894 
 0 
POINT
 8 
POINTS
 62 
 3 
 10 
 495.617122757731 
 20 
 871.38519023366 
 0 
LINE
 8 
LINES
 62 
 1 
 10 
 505.090192205966 
 20 
 868.18297963894 
 11 
 514.650874642197 
 21 
 865.252698284266 
 0 
POINT
 8 
POINTS
 62 
 3 
 10 
 505.090192205966 
 20 
 868.18297963894 
 0 
LINE
 8 
LINES
 62 
 1 
 10 
 514.650874642197 
 20 
 865.252698284266 
 11 
 524.291365958615 
 21 
 862.596738073328 
 0 
POINT
 8 
POINTS
 62 
 3 
 10 
 514.650874642197 
 20 
 865.252698284266 
 0 
LINE
 8 
LINES
 62 
 1 
 10 
 524.291365958615 
 20 
 862.596738073328 
 11 
 534.003796901736 
 21 
 860.217266989425 
 0 
POINT
 8 
POINTS
 62 
 3 
 10 
 524.291365958615 
 20 
 862.596738073328 
 0 
LINE
 8 
LINES
 62 
 1 
 10 
 534.003796901736 
 20 
 860.217266989425 
 11 
 543.780239495843 
 21 
 858.116227325795 
 0 
POINT
 8 
POINTS
 62 
 3 
 10 
 534.003796901736 
 20 
 860.217266989425 
 0 
LINE
 8 
LINES
 62 
 1 
 10 
 543.780239495843 
 20 
 858.116227325795 
 11 
 553.612713514367 
 21 
 856.295334100186 
 0 
POINT
 8 
POINTS
 62 
 3 
 10 
 543.780239495843 
 20 
 858.116227325795 
 0 
LINE
 8 
LINES
 62 
 1 
 10 
 553.612713514367 
 20 
 856.295334100186 
 11 
 563.493192993911 
 21 
 854.756073654931 
 0 
POINT
 8 
POINTS
 62 
 3 
 10 
 553.612713514367 
 20 
 856.295334100186 
 0 
LINE
 8 
LINES
 62 
 1 
 10 
 563.493192993911 
 20 
 854.756073654931 
 11 
 573.413612785613 
 21 
 853.499702443692 
 0 
POINT
 8 
POINTS
 62 
 3 
 10 
 563.493192993911 
 20 
 854.756073654931 
 0 
LINE
 8 
LINES
 62 
 1 
 10 
 573.413612785613 
 20 
 853.499702443692 
 11 
 583.365875138491 
 21 
 852.527246005855 
 0 
POINT
 8 
POINTS
 62 
 3 
 10 
 573.413612785613 
 20 
 853.499702443692 
 0 
LINE
 8 
LINES
 62 
 1 
 10 
 583.365875138491 
 20 
 852.527246005855 
 11 
 593.341856309407 
 21 
 851.839498129408 
 0 
POINT
 8 
POINTS
 62 
 3 
 10 
 583.365875138491 
 20 
 852.527246005855 
 0 
LINE
 8 
LINES
 62 
 1 
 10 
 593.341856309407 
 20 
 851.839498129408 
 11 
 603.333413194236 
 21 
 851.437020202997 
 0 
POINT
 8 
POINTS
 62 
 3 
 10 
 593.341856309407 
 20 
 851.839498129408 
 0 
LINE
 8 
LINES
 62 
 1 
 10 
 603.333413194236 
 20 
 851.437020202997 
 11 
 613.332389974851 
 21 
 851.320140757683 
 0 
POINT
 8 
POINTS
 62 
 3 
 10 
 603.333413194236 
 20 
 851.437020202997 
 0 
LINE
 8 
LINES
 62 
 1 
 10 
 613.332389974851 
 20 
 851.320140757683 
 11 
 623.332151789861 
 21 
 851.388431492887 
 0 
POINT
 8 
POINTS
 62 
 3 
 10 
 613.332389974851 
 20 
 851.320140757683 
 0 
LINE
 8 
LINES
 62 
 1 
 10 
 623.332151789861 
 20 
 851.388431492887 
 11 
 633.331892599939 
 21 
 851.460429626719 
 0 
POINT
 8 
POINTS
 62 
 3 
 10 
 623.332151789861 
 20 
 851.388431492887 
 0 
LINE
 8 
LINES
 62 
 1 
 10 
 633.331892599939 
 20 
 851.460429626719 
 11 
 643.331633410016 
 21 
 851.532427760552 
 0 
POINT
 8 
POINTS
 62 
 3 
 10 
 633.331892599939 
 20 
 851.460429626719 
 0 
LINE
 8 
LINES
 62 
 1 
 10 
 643.331633410016 
 20 
 851.532427760552 
 11 
 653.331374220093 
 21 
 851.604425894385 
 0 
POINT
 8 
POINTS
 62 
 3 
 10 
 643.331633410016 
 20 
 851.532427760552 
 0 
LINE
 8 
LINES
 62 
 1 
 10 
 653.331374220093 
 20 
 851.604425894385 
 11 
 663.33111503017 
 21 
 851.676424028217 
 0 
POINT
 8 
POINTS
 62 
 3 
 10 
 653.331374220093 
 20 
 851.604425894385 
 0 
LINE
 8 
LINES
 62 
 1 
 10 
 663.33111503017 
 20 
 851.676424028217 
 11 
 673.330855840248 
 21 
 851.74842216205 
 0 
POINT
 8 
POINTS
 62 
 3 
 10 
 663.33111503017 
 20 
 851.676424028217 
 0 
LINE
 8 
LINES
 62 
 1 
 10 
 673.330855840248 
 20 
 851.74842216205 
 11 
 683.330596650325 
 21 
 851.820420295882 
 0 
POINT
 8 
POINTS
 62 
 3 
 10 
 673.330855840248 
 20 
 851.74842216205 
 0 
LINE
 8 
LINES
 62 
 1 
 10 
 683.330596650325 
 20 
 851.820420295882 
 11 
 693.330337460402 
 21 
 851.892418429715 
 0 
POINT
 8 
POINTS
 62 
 3 
 10 
 683.330596650325 
 20 
 851.820420295882 
 0 
LINE
 8 
LINES
 62 
 1 
 10 
 693.330337460402 
 20 
 851.892418429715 
 11 
 703.330078270479 
 21 
 851.964416563547 
 0 
POINT
 8 
POINTS
 62 
 3 
 10 
 693.330337460402 
 20 
 851.892418429715 
 0 
LINE
 8 
LINES
 62 
 1 
 10 
 703.330078270479 
 20 
 851.964416563547 
 11 
 713.329819080557 
 21 
 852.03641469738 
 0 
POINT
 8 
POINTS
 62 
 3 
 10 
 703.330078270479 
 20 
 851.964416563547 
 0 
LINE
 8 
LINES
 62 
 1 
 10 
 713.329819080557 
 20 
 852.03641469738 
 11 
 723.329559890634 
 21 
 852.108412831213 
 0 
POINT
 8 
POINTS
 62 
 3 
 10 
 713.329819080557 
 20 
 852.03641469738 
 0 
TEXT
 8 
TEXTS
 62 
 4 
 10 
 232.824991843638 
 20 
 513.465271959615 
 40 
 2 
 1 
ZH
 7 
宋体
 0 
POINT
 8 
POINTS
 62 
 3 
 10 
 237.824991843638 
 20 
 518.465271959615 
 0 
CIRCLE
 8 
CIRCLES
 62 
 2 
 10 
 237.824991843638 
 20 
 518.465271959615 
 30 
0.0
 40 
 2 
 0 
TEXT
 8 
TEXTS
 62 
 4 
 10 
 264.837254435589 
 20 
 558.001203938756 
 40 
 2 
 1 
HY
 7 
宋体
 0 
POINT
 8 
POINTS
 62 
 3 
 10 
 269.837254435589 
 20 
 563.001203938756 
 0 
CIRCLE
 8 
CIRCLES
 62 
 2 
 10 
 269.837254435589 
 20 
 563.001203938756 
 30 
0.0
 40 
 2 
 0 
TEXT
 8 
TEXTS
 62 
 4 
 10 
 276.073368173394 
 20 
 603.981501140192 
 40 
 2 
 1 
QZ
 7 
宋体
 0 
POINT
 8 
POINTS
 62 
 3 
 10 
 281.073368173394 
 20 
 608.981501140192 
 0 
CIRCLE
 8 
CIRCLES
 62 
 2 
 10 
 281.073368173394 
 20 
 608.981501140192 
 30 
0.0
 40 
 2 
 0 
TEXT
 8 
TEXTS
 62 
 4 
 10 
 266.947211884453 
 20 
 650.426627678236 
 40 
 2 
 1 
YH
 7 
宋体
 0 
POINT
 8 
POINTS
 62 
 3 
 10 
 271.947211884453 
 20 
 655.426627678236 
 0 
CIRCLE
 8 
CIRCLES
 62 
 2 
 10 
 271.947211884453 
 20 
 655.426627678236 
 30 
0.0
 40 
 2 
 0 
TEXT
 8 
TEXTS
 62 
 4 
 10 
 237.000698899046 
 20 
 696.377043868228 
 40 
 2 
 1 
HZ
 7 
宋体
 0 
POINT
 8 
POINTS
 62 
 3 
 10 
 242.000698899046 
 20 
 701.377043868228 
 0 
CIRCLE
 8 
CIRCLES
 62 
 2 
 10 
 242.000698899046 
 20 
 701.377043868228 
 30 
0.0
 40 
 2 
 0 
TEXT
 8 
TEXTS
 62 
 4 
 10 
 219.036854696753 
 20 
 719.481762496708 
 40 
 2 
 1 
ZH
 7 
宋体
 0 
POINT
 8 
POINTS
 62 
 3 
 10 
 224.036854696753 
 20 
 724.481762496708 
 0 
CIRCLE
 8 
CIRCLES
 62 
 2 
 10 
 224.036854696753 
 20 
 724.481762496708 
 30 
0.0
 40 
 2 
 0 
TEXT
 8 
TEXTS
 62 
 4 
 10 
 195.453105400569 
 20 
 755.309848482661 
 40 
 2 
 1 
HY
 7 
宋体
 0 
POINT
 8 
POINTS
 62 
 3 
 10 
 200.453105400569 
 20 
 760.309848482661 
 0 
CIRCLE
 8 
CIRCLES
 62 
 2 
 10 
 200.453105400569 
 20 
 760.309848482661 
 30 
0.0
 40 
 2 
 0 
TEXT
 8 
TEXTS
 62 
 4 
 10 
 187.427812203685 
 20 
 795.970941460849 
 40 
 2 
 1 
QZ
 7 
宋体
 0 
POINT
 8 
POINTS
 62 
 3 
 10 
 192.427812203685 
 20 
 800.970941460849 
 0 
CIRCLE
 8 
CIRCLES
 62 
 2 
 10 
 192.427812203685 
 20 
 800.970941460849 
 30 
0.0
 40 
 2 
 0 
TEXT
 8 
TEXTS
 62 
 4 
 10 
 198.267168654512 
 20 
 835.973908872959 
 40 
 2 
 1 
YH
 7 
宋体
 0 
POINT
 8 
POINTS
 62 
 3 
 10 
 203.267168654512 
 20 
 840.973908872959 
 0 
CIRCLE
 8 
CIRCLES
 62 
 2 
 10 
 203.267168654512 
 20 
 840.973908872959 
 30 
0.0
 40 
 2 
 0 
TEXT
 8 
TEXTS
 62 
 4 
 10 
 224.290324631836 
 20 
 870.071422184129 
 40 
 2 
 1 
HZ
 7 
宋体
 0 
POINT
 8 
POINTS
 62 
 3 
 10 
 229.290324631836 
 20 
 875.071422184129 
 0 
CIRCLE
 8 
CIRCLES
 62 
 2 
 10 
 229.290324631836 
 20 
 875.071422184129 
 30 
0.0
 40 
 2 
 0 
TEXT
 8 
TEXTS
 62 
 4 
 10 
 249.823826211153 
 20 
 898.568002762626 
 40 
 2 
 1 
ZH
 7 
宋体
 0 
POINT
 8 
POINTS
 62 
 3 
 10 
 254.823826211153 
 20 
 903.568002762626 
 0 
CIRCLE
 8 
CIRCLES
 62 
 2 
 10 
 254.823826211153 
 20 
 903.568002762626 
 30 
0.0
 40 
 2 
 0 
TEXT
 8 
TEXTS
 62 
 4 
 10 
 274.864889993878 
 20 
 922.926512809938 
 40 
 2 
 1 
HY
 7 
宋体
 0 
POINT
 8 
POINTS
 62 
 3 
 10 
 279.864889993878 
 20 
 927.926512809938 
 0 
CIRCLE
 8 
CIRCLES
 62 
 2 
 10 
 279.864889993878 
 20 
 927.926512809938 
 30 
0.0
 40 
 2 
 0 
TEXT
 8 
TEXTS
 62 
 4 
 10 
 311.002055911329 
 20 
 938.259769414698 
 40 
 2 
 1 
QZ
 7 
宋体
 0 
POINT
 8 
POINTS
 62 
 3 
 10 
 316.002055911329 
 20 
 943.259769414698 
 0 
CIRCLE
 8 
CIRCLES
 62 
 2 
 10 
 316.002055911329 
 20 
 943.259769414698 
 30 
0.0
 40 
 2 
 0 
TEXT
 8 
TEXTS
 62 
 4 
 10 
 350.17540049542 
 20 
 935.719629301082 
 40 
 2 
 1 
YH
 7 
宋体
 0 
POINT
 8 
POINTS
 62 
 3 
 10 
 355.17540049542 
 20 
 940.719629301082 
 0 
CIRCLE
 8 
CIRCLES
 62 
 2 
 10 
 355.17540049542 
 20 
 940.719629301082 
 30 
0.0
 40 
 2 
 0 
TEXT
 8 
TEXTS
 62 
 4 
 10 
 381.855347407827 
 20 
 920.996420570331 
 40 
 2 
 1 
HZ
 7 
宋体
 0 
POINT
 8 
POINTS
 62 
 3 
 10 
 386.855347407827 
 20 
 925.996420570331 
 0 
CIRCLE
 8 
CIRCLES
 62 
 2 
 10 
 386.855347407827 
 20 
 925.996420570331 
 30 
0.0
 40 
 2 
 0 
TEXT
 8 
TEXTS
 62 
 4 
 10 
 438.503350175341 
 20 
 889.780193746405 
 40 
 2 
 1 
ZY
 7 
宋体
 0 
POINT
 8 
POINTS
 62 
 3 
 10 
 443.503350175341 
 20 
 894.780193746405 
 0 
CIRCLE
 8 
CIRCLES
 62 
 2 
 10 
 443.503350175341 
 20 
 894.780193746405 
 30 
0.0
 40 
 2 
 0 
TEXT
 8 
TEXTS
 62 
 4 
 10 
 438.503350175341 
 20 
 889.780193746405 
 40 
 2 
 1 
ZY
 7 
宋体
 0 
POINT
 8 
POINTS
 62 
 3 
 10 
 443.503350175341 
 20 
 894.780193746405 
 0 
CIRCLE
 8 
CIRCLES
 62 
 2 
 10 
 443.503350175341 
 20 
 894.780193746405 
 30 
0.0
 40 
 2 
 0 
TEXT
 8 
TEXTS
 62 
 4 
 10 
 521.433448120098 
 20 
 857.046610341045 
 40 
 2 
 1 
QZ
 7 
宋体
 0 
POINT
 8 
POINTS
 62 
 3 
 10 
 526.433448120098 
 20 
 862.046610341045 
 0 
CIRCLE
 8 
CIRCLES
 62 
 2 
 10 
 526.433448120098 
 20 
 862.046610341045 
 30 
0.0
 40 
 2 
 0 
TEXT
 8 
TEXTS
 62 
 4 
 10 
 609.943338566519 
 20 
 846.328032037679 
 40 
 2 
 1 
YZ
 7 
宋体
 0 
POINT
 8 
POINTS
 62 
 3 
 10 
 614.943338566519 
 20 
 851.328032037679 
 0 
CIRCLE
 8 
CIRCLES
 62 
 2 
 10 
 614.943338566519 
 20 
 851.328032037679 
 30 
0.0
 40 
 2 
 0 
TEXT
 8 
TEXTS
 62 
 4 
 10 
 609.943338566519 
 20 
 846.328032037679 
 40 
 2 
 1 
YZ
 7 
宋体
 0 
POINT
 8 
POINTS
 62 
 3 
 10 
 614.943338566519 
 20 
 851.328032037679 
 0 
CIRCLE
 8 
CIRCLES
 62 
 2 
 10 
 614.943338566519 
 20 
 851.328032037679 
 30 
0.0
 40 
 2 
 0 
ENDSEC
 0 
EOF
