0
SECTION
2
TABLES
0
TABLE
2
LAYER
0
LAYER
70
0
2
shp1
62
70
6
CONTINUOUS
0
LAYER
70
0
2
shp2
62
10
6
CONTINUOUS
0
LAYER
70
0
2
shp1_name
62
50
6
CONTINUOUS
0
LAYER
70
0
2
shp2_name
62
110
6
CONTINUOUS
0
ENDTAB
0
ENDSEC
0
SECTION
2
ENTITIES
0
LINE
8
shp1
10
-4791.26
20
-4195.871
11
-4686.84
21
-4441.569
0
TEXT
8
shp1
10
-4738.75
20
-4318.72
1
1-1
40
23.50198
0
LINE
8
shp1
10
-4686.84
20
-4441.569
11
-4510.646
21
-4757.252
0
TEXT
8
shp1
10
-4598.443
20
-4599.411
1
1-2
40
23.50198
0
LINE
8
shp1
10
-4510.646
20
-4757.252
11
-4359.618
21
-5002.903
0
TEXT
8
shp1
10
-4434.832
20
-4880.078
1
1-3
40
23.50198
0
LINE
8
shp1
10
-4359.618
20
-5002.903
11
-4160.426
21
-5322.015
0
TEXT
8
shp1
10
-4259.722
20
-5162.459
1
1-4
40
23.50198
0
LINE
8
shp1
10
-4160.426
20
-5322.015
11
-3674.728
21
-5822.787
0
TEXT
8
shp1
10
-3917.277
20
-5572.401
1
1-5
40
23.50198
0
LINE
8
shp1
10
-3674.728
20
-5822.787
11
-3782.822
21
-5794.803
0
TEXT
8
shp1
10
-3728.475
20
-5808.795
1
2-1
40
23.50198
0
LINE
8
shp1
10
-3782.822
20
-5794.803
11
-4311.298
21
-5658.008
0
TEXT
8
shp1
10
-4046.76
20
-5726.406
1
2-2
40
23.50198
0
LINE
8
shp1
10
-4311.298
20
-5658.008
11
-4422.046
21
-5547.259
0
TEXT
8
shp1
10
-4366.372
20
-5602.634
1
2-3
40
23.50198
0
LINE
8
shp1
10
-4422.046
20
-5547.259
11
-4810.956
21
-4917.979
0
TEXT
8
shp1
10
-4616.201
20
-5232.62
1
2-4
40
23.50198
0
LINE
8
shp1
10
-4810.956
20
-4917.98
11
-5285.886
21
-5082.115
0
TEXT
8
shp1
10
-5048.121
20
-5000.047
1
3-1
40
23.50198
0
LINE
8
shp1
10
-4810.956
20
-4917.981
11
-5027.473
21
-4565.288
0
TEXT
8
shp1
10
-4918.914
20
-4741.634
1
4-1
40
23.50198
0
LINE
8
shp1
10
-3674.728
20
-5822.787
11
-3398.15
21
-5900.921
0
TEXT
8
shp1
10
-3536.139
20
-5861.854
1
5-1
40
23.50198
0
LINE
8
shp1
10
-3398.15
20
-5900.921
11
-2998.067
21
-6170.089
0
TEXT
8
shp1
10
-3197.809
20
-6035.505
1
5-2
40
23.50198
0
LINE
8
shp1
10
-2998.067
20
-6170.089
11
-2948.613
21
-6185.092
0
TEXT
8
shp1
10
-2973.04
20
-6177.59
1
5-3
40
23.50198
0
LINE
8
shp1
10
-3782.823
20
-5794.803
11
-3496.974
21
-6063.931
0
TEXT
8
shp1
10
-3639.598
20
-5929.367
1
6-1
40
23.50198
0
LINE
8
shp1
10
-4311.297
20
-5658.008
11
-4395.973
21
-5836.058
0
TEXT
8
shp1
10
-4353.335
20
-5747.033
1
7-1
40
23.50198
0
LINE
8
shp1
10
-4395.973
20
-5836.058
11
-5285.886
21
-5082.115
0
TEXT
8
shp1
10
-4840.63
20
-5459.086
1
7-2
40
23.50198
0
LINE
8
shp2
10
-5019.988
20
-4561.744
11
-4813.81
21
-4918.439
0
TEXT
8
shp2
10
-4916.599
20
-4740.091
1
1-1
40
23.50198
0
LINE
8
shp2
10
-4813.81
20
-4918.439
11
-4656.513
21
-5180.786
0
TEXT
8
shp2
10
-4734.862
20
-5049.613
1
1-2
40
23.50198
0
LINE
8
shp2
10
-4656.513
20
-5180.786
11
-4469.097
21
-5498.827
0
TEXT
8
shp2
10
-4562.505
20
-5339.806
1
1-3
40
23.50198
0
LINE
8
shp2
10
-4469.097
20
-5498.827
11
-4375.559
21
-5605.14
0
TEXT
8
shp2
10
-4422.028
20
-5551.983
1
1-4
40
23.50198
0
LINE
8
shp2
10
-4375.559
20
-5605.14
11
-4309.739
21
-5651.643
0
TEXT
8
shp2
10
-4342.349
20
-5628.392
1
1-5
40
23.50198
0
LINE
8
shp2
10
-4309.739
20
-5651.643
11
-4176.67
21
-5706.73
0
TEXT
8
shp2
10
-4242.905
20
-5679.187
1
1-6
40
23.50198
0
LINE
8
shp2
10
-4176.67
20
-5706.73
11
-3759.58
21
-5806.857
0
TEXT
8
shp2
10
-3967.825
20
-5756.794
1
1-7
40
23.50198
0
LINE
8
shp2
10
-3759.58
20
-5806.857
11
-3651.925
21
-5833.65
0
TEXT
8
shp2
10
-3705.453
20
-5820.253
1
1-8
40
23.50198
0
LINE
8
shp2
10
-3651.925
20
-5833.65
11
-3407.117
21
-5902.004
0
TEXT
8
shp2
10
-3529.221
20
-5867.827
1
1-9
40
23.50198
0
LINE
8
shp2
10
-3407.117
20
-5902.004
11
-2998.161
21
-6174.662
0
TEXT
8
shp2
10
-3202.339
20
-6038.333
1
1-10
40
23.50198
0
LINE
8
shp2
10
-2998.161
20
-6174.662
11
-2935.688
21
-6191.7
0
TEXT
8
shp2
10
-2966.624
20
-6183.181
1
1-11
40
23.50198
0
LINE
8
shp2
10
-4813.814
20
-4918.432
11
-5258.518
21
-5078.559
0
TEXT
8
shp2
10
-5035.866
20
-4998.496
1
2-1
40
23.50198
0
LINE
8
shp2
10
-4813.814
20
-4918.433
11
-4505.214
21
-4756.24
0
TEXT
8
shp2
10
-4659.214
20
-4837.336
1
3-1
40
23.50198
0
LINE
8
shp2
10
-3759.581
20
-5806.856
11
-3541.371
21
-6040.835
0
TEXT
8
shp2
10
-3650.176
20
-5923.846
1
4-1
40
23.50198
0
LINE
8
shp2
10
-3541.371
20
-6040.835
11
-3429.049
21
-6140.995
0
TEXT
8
shp2
10
-3484.91
20
-6090.915
1
4-2
40
23.50198
0
LINE
8
shp2
10
-3407.116
20
-5902.003
11
-3342.076
21
-5275.773
0
TEXT
8
shp2
10
-3374.296
20
-5588.888
1
5-1
40
23.50198
0
LINE
8
shp2
10
-3342.076
20
-5275.773
11
-3286.704
21
-4953.427
0
TEXT
8
shp2
10
-3314.09
20
-5114.6
1
5-2
40
23.50198
0
LINE
8
shp2
10
-3651.925
20
-5833.65
11
-4160.531
21
-5315.409
0
TEXT
8
shp2
10
-3905.928
20
-5574.53
1
6-1
40
23.50198
0
LINE
8
shp2
10
-4160.531
20
-5315.409
11
-4357.313
21
-4994.502
0
TEXT
8
shp2
10
-4258.622
20
-5154.956
1
6-2
40
23.50198
0
LINE
8
shp2
10
-4357.313
20
-4994.502
11
-4505.214
21
-4756.24
0
TEXT
8
shp2
10
-4430.964
20
-4875.371
1
6-3
40
23.50198
0
LINE
8
shp2
10
-4505.214
20
-4756.24
11
-4696.385
21
-4440.483
0
TEXT
8
shp2
10
-4600.5
20
-4598.361
1
6-4
40
23.50198
0
LINE
8
shp2
10
-4696.385
20
-4440.483
11
-4753.906
21
-4313.331
0
TEXT
8
shp2
10
-4724.846
20
-4376.907
1
6-5
40
23.50198
0
LINE
8
shp2
10
-4753.906
20
-4313.331
11
-4793.263
21
-4207.371
0
TEXT
8
shp2
10
-4773.285
20
-4260.351
1
6-6
40
23.50198
0
LINE
8
shp2
10
-4309.739
20
-5651.643
11
-4396.772
21
-5840.09
0
TEXT
8
shp2
10
-4352.956
20
-5745.867
1
7-1
40
23.50198
0
LINE
8
shp2
10
-4396.772
20
-5840.09
11
-5258.518
21
-5078.559
0
TEXT
8
shp2
10
-4827.345
20
-5459.325
1
7-2
40
23.50198
0
ENDSEC
0
EOF
